<svg xmlns="http://www.w3.org/2000/svg" xmlns:xlink="http://www.w3.org/1999/xlink" contentStyleType="text/css" data-diagram-type="STATE" height="421px" preserveAspectRatio="none" style="width:499px;height:421px;background:#FFFFFF;" version="1.1" viewBox="0 0 499 421" width="499px" zoomAndPan="magnify"><?plantuml 1.2026.3beta6?><defs/><g><g class="start_entity" data-qualified-name=".start." data-source-line="1" id="ent0002"><ellipse cx="244.19" cy="16" fill="#222222" rx="10" ry="10" style="stroke:#222222;stroke-width:1;"/></g><g class="entity" data-qualified-name="Disponible" id="ent0003"><rect fill="#F1F1F1" height="50" rx="12.5" ry="12.5" style="stroke:#181818;stroke-width:0.5;" width="93.5684" x="39.4" y="103"/><line style="stroke:#181818;stroke-width:0.5;" x1="39.4" x2="132.9684" y1="129.2969" y2="129.2969"/><text fill="#000000" font-family="sans-serif" font-size="14" lengthAdjust="spacing" textLength="73.5684" x="49.4" y="120.9951">Disponible</text></g><g class="entity" data-qualified-name="Stock_faible" id="ent0005"><rect fill="#F1F1F1" height="50" rx="12.5" ry="12.5" style="stroke:#181818;stroke-width:0.5;" width="104.5332" x="105.92" y="230"/><line style="stroke:#181818;stroke-width:0.5;" x1="105.92" x2="210.4532" y1="256.2969" y2="256.2969"/><text fill="#000000" font-family="sans-serif" font-size="14" lengthAdjust="spacing" textLength="84.5332" x="115.92" y="247.9951">Stock_faible</text></g><g class="entity" data-qualified-name="Rupture" id="ent0007"><rect fill="#F1F1F1" height="50" rx="12.5" ry="12.5" style="stroke:#181818;stroke-width:0.5;" width="76.2188" x="120.08" y="357"/><line style="stroke:#181818;stroke-width:0.5;" x1="120.08" x2="196.2987" y1="383.2969" y2="383.2969"/><text fill="#000000" font-family="sans-serif" font-size="14" lengthAdjust="spacing" textLength="56.2188" x="130.08" y="374.9951">Rupture</text></g><!--link *start* to Disponible--><g class="link" data-entity-1="ent0002" data-entity-2="ent0003" data-link-type="dependency" data-source-line="1" id="lnk4"><path d="M234.47,19.88 C217.41,25.23 181.39,37.83 155.19,56 C136.4,69.03 122.4255,83.1337 109.5755,98.0537" fill="none" id="*start*-to-Disponible" style="stroke:#181818;stroke-width:1;"/><polygon fill="#181818" points="105.66,102.6,114.5641,98.3909,108.9229,98.8114,108.5024,93.1702,105.66,102.6" style="stroke:#181818;stroke-width:1;"/><text fill="#000000" font-family="sans-serif" font-size="13" lengthAdjust="spacing" textLength="61.9277" x="156.19" y="69.0669">stock &gt; 5</text></g><!--link *start* to Stock_faible--><g class="link" data-entity-1="ent0002" data-entity-2="ent0005" data-link-type="dependency" data-source-line="2" id="lnk6"><path d="M243.16,26.18 C239.83,53.72 227.75,137.52 198.19,200 C193.25,210.44 189.8181,216.1318 182.9581,225.0118" fill="none" id="*start*-to-Stock_faible" style="stroke:#181818;stroke-width:1;"/><polygon fill="#181818" points="179.29,229.76,187.9576,225.0831,182.3467,225.8032,181.6267,220.1923,179.29,229.76" style="stroke:#181818;stroke-width:1;"/><text fill="#000000" font-family="sans-serif" font-size="13" lengthAdjust="spacing" textLength="174.1797" x="230.19" y="132.5669">1 &lt;= stock &amp;&amp; stock &lt;= 5</text></g><!--link *start* to Rupture--><g class="link" data-entity-1="ent0002" data-entity-2="ent0007" data-link-type="dependency" data-source-line="3" id="lnk8"><path d="M254.21,18.48 C284.75,23.57 376.7,43.5 413.19,103 C424.8,121.94 416.46,131.02 413.19,153 C401.28,232.96 418.33,270.83 360.19,327 C315.93,369.75 247.7255,379.3274 202.6255,381.0774" fill="none" id="*start*-to-Rupture" style="stroke:#181818;stroke-width:1;"/><polygon fill="#181818" points="196.63,381.31,205.7783,384.958,201.6262,381.1161,205.4681,376.964,196.63,381.31" style="stroke:#181818;stroke-width:1;"/><text fill="#000000" font-family="sans-serif" font-size="13" lengthAdjust="spacing" textLength="72.8203" x="410.19" y="196.0669">stock == 0</text></g><!--link Disponible to Stock_faible--><g class="link" data-entity-1="ent0003" data-entity-2="ent0005" data-link-type="dependency" data-source-line="5" id="lnk9"><path d="M55.49,153.35 C42.02,167.07 31.28,184.51 41.19,200 C55.47,222.33 75.8928,233.7084 99.8428,241.4784" fill="none" id="Disponible-to-Stock_faible" style="stroke:#181818;stroke-width:1;"/><polygon fill="#181818" points="105.55,243.33,98.2236,236.7479,100.794,241.787,95.7549,244.3574,105.55,243.33" style="stroke:#181818;stroke-width:1;"/><text fill="#000000" font-family="sans-serif" font-size="13" lengthAdjust="spacing" textLength="72.8203" x="42.19" y="196.0669">stock &lt;= 5</text></g><!--link Stock_faible to Disponible--><g class="link" data-entity-1="ent0005" data-entity-2="ent0003" data-link-type="dependency" data-source-line="6" id="lnk10"><path d="M145.11,229.53 C137.66,215.77 128.07,198.33 119.19,183 C113.51,173.21 110.2021,167.6715 104.5221,158.4315" fill="none" id="Stock_faible-to-Disponible" style="stroke:#181818;stroke-width:1;"/><polygon fill="#181818" points="101.38,153.32,102.6855,163.0819,103.9984,157.5796,109.5008,158.8925,101.38,153.32" style="stroke:#181818;stroke-width:1;"/><text fill="#000000" font-family="sans-serif" font-size="13" lengthAdjust="spacing" textLength="61.9277" x="128.19" y="196.0669">stock &gt; 5</text></g><!--link Stock_faible to Rupture--><g class="link" data-entity-1="ent0005" data-entity-2="ent0007" data-link-type="dependency" data-source-line="7" id="lnk11"><path d="M121.38,280.41 C112.06,288.61 103.26,298.61 98.19,310 C90.11,328.13 98.9476,341.5034 115.1876,354.3734" fill="none" id="Stock_faible-to-Rupture" style="stroke:#181818;stroke-width:1;"/><polygon fill="#181818" points="119.89,358.1,115.3208,349.3752,115.9713,354.9945,110.352,355.645,119.89,358.1" style="stroke:#181818;stroke-width:1;"/><text fill="#000000" font-family="sans-serif" font-size="13" lengthAdjust="spacing" textLength="72.8203" x="99.19" y="323.0669">stock == 0</text></g><!--link Rupture to Stock_faible--><g class="link" data-entity-1="ent0007" data-entity-2="ent0005" data-link-type="dependency" data-source-line="8" id="lnk12"><path d="M169.5,356.58 C174.5,342.99 178.73,325.69 176.19,310 C174.57,300.05 173.3982,295.1139 170.1482,285.9639" fill="none" id="Rupture-to-Stock_faible" style="stroke:#181818;stroke-width:1;"/><polygon fill="#181818" points="168.14,280.31,167.3831,290.1297,169.8135,285.0216,174.9216,287.4521,168.14,280.31" style="stroke:#181818;stroke-width:1;"/><text fill="#000000" font-family="sans-serif" font-size="13" lengthAdjust="spacing" textLength="174.1797" x="177.19" y="323.0669">1 &lt;= stock &amp;&amp; stock &lt;= 5</text></g><!--link Rupture to Disponible--><g class="link" data-entity-1="ent0007" data-entity-2="ent0003" data-link-type="dependency" data-source-line="9" id="lnk13"><path d="M119.87,364.08 C87.99,347.68 44.78,319.48 25.19,280 C6,241.33 11.22,221.78 30.19,183 C35.64,171.84 40.0164,165.8061 49.0164,157.4361" fill="none" id="Rupture-to-Disponible" style="stroke:#181818;stroke-width:1;"/><polygon fill="#181818" points="53.41,153.35,44.0955,156.55,49.7486,156.7551,49.5436,162.4082,53.41,153.35" style="stroke:#181818;stroke-width:1;"/><text fill="#000000" font-family="sans-serif" font-size="13" lengthAdjust="spacing" textLength="61.9277" x="26.19" y="259.5669">stock &gt; 5</text></g><?plantuml-src YzQALT3LjLDmoImkoC_BJCf9LR1IA2x9JyvMi5CmvOg6IWU3HEBJ4g4A31LiRA6grDIW3A08GdrGQK59QH72B5jR1GCkBYHBi1YAP0oA31xdOQZ3QYzCa1IF8El1RZa0?></g></svg>